# Blender 5.0.0
# www.blender.org
mtllib mimita-char-concise-v3.mtl
o Cube.016
v -0.308333 -0.026667 0.000000
v -0.113333 1.573333 -0.195000
v -0.308333 -0.026667 -0.600000
v -0.113333 1.573333 -0.405000
v 0.291667 -0.026667 0.000000
v 0.096667 1.573333 -0.195000
v 0.291667 -0.026667 -0.600000
v 0.096667 1.573333 -0.405000
v -0.008334 2.773333 0.180000
v -0.488334 3.373333 0.300000
v -0.008334 2.773333 -0.180000
v -0.488334 3.373333 -0.300000
v 0.271667 2.773333 0.180000
v 0.391667 3.373333 0.300000
v 0.271667 2.773333 -0.180000
v 0.391667 3.373333 -0.300000
v -0.216333 1.073333 0.808000
v -0.088333 2.673334 0.680000
v -0.216333 1.073333 0.392000
v -0.088333 2.673334 0.520000
v 0.199667 1.073333 0.808000
v 0.071667 2.673334 0.680000
v 0.199667 1.073333 0.392000
v 0.071667 2.673334 0.520000
v -0.216333 1.073333 -0.392000
v -0.088333 2.673333 -0.520000
v -0.216333 1.073333 -0.808000
v -0.088333 2.673333 -0.680000
v 0.199667 1.073333 -0.392000
v 0.071667 2.673333 -0.520000
v 0.199667 1.073333 -0.808000
v 0.071667 2.673333 -0.680000
v -0.086733 1.473333 0.235200
v -0.168333 2.673333 0.480000
v -0.086733 1.473333 -0.235200
v -0.168333 2.673333 -0.480000
v 0.070067 1.473333 0.235200
v 0.151667 2.673333 0.480000
v 0.070067 1.473333 -0.235200
v 0.151667 2.673333 -0.480000
v -0.308333 -0.026667 0.600000
v -0.113333 1.573334 0.405000
v -0.308333 -0.026667 -0.000000
v -0.113333 1.573334 0.195000
v 0.291667 -0.026667 0.600000
v 0.096667 1.573334 0.405000
v 0.291667 -0.026667 -0.000000
v 0.096667 1.573334 0.195000
vn -0.9927 0.1210 -0.0000
vn -0.0000 0.1210 -0.9927
vn 0.9927 0.1210 -0.0000
vn -0.0000 0.1210 0.9927
vn -0.0000 -1.0000 -0.0000
vn -0.0000 1.0000 -0.0000
vn -0.7809 -0.6247 -0.0000
vn -0.0000 -0.1961 -0.9806
vn 0.9806 -0.1961 -0.0000
vn -0.0000 -0.1961 0.9806
vn -0.9968 0.0797 -0.0000
vn -0.0000 0.0797 -0.9968
vn 0.9968 0.0797 -0.0000
vn -0.0000 0.0797 0.9968
vn -0.9977 -0.0678 -0.0000
vn -0.0000 -0.1999 -0.9798
vn 0.9977 -0.0678 -0.0000
vn -0.0000 -0.1999 0.9798
vt 0.375000 0.000000
vt 0.625000 0.250000
vt 0.375000 0.250000
vt 0.375000 0.500000
vt 0.625000 0.500000
vt 0.375000 0.750000
vt 0.625000 0.750000
vt 0.375000 1.000000
vt 0.125000 0.750000
vt 0.125000 0.500000
vt 0.875000 0.500000
vt 0.625000 0.000000
vt 0.625000 1.000000
vt 0.875000 0.750000
s 0
f 1/1/1 4/2/1 3/3/1
f 4/2/2 7/4/2 3/3/2
f 8/5/3 5/6/3 7/4/3
f 6/7/4 1/8/4 5/6/4
f 7/4/5 1/9/5 3/10/5
f 4/11/6 6/7/6 8/5/6
f 10/12/7 11/3/7 9/1/7
f 11/3/8 16/5/8 15/4/8
f 15/4/9 14/7/9 13/6/9
f 14/7/10 9/8/10 13/6/10
f 15/4/5 9/9/5 11/10/5
f 12/11/6 14/7/6 16/5/6
f 18/12/11 19/3/11 17/1/11
f 20/2/12 23/4/12 19/3/12
f 24/5/13 21/6/13 23/4/13
f 22/7/14 17/8/14 21/6/14
f 23/4/5 17/9/5 19/10/5
f 20/11/6 22/7/6 24/5/6
f 26/12/11 27/3/11 25/1/11
f 28/2/12 31/4/12 27/3/12
f 32/5/13 29/6/13 31/4/13
f 30/7/14 25/8/14 29/6/14
f 31/4/5 25/9/5 27/10/5
f 28/11/6 30/7/6 32/5/6
f 34/12/15 35/3/15 33/1/15
f 36/2/16 39/4/16 35/3/16
f 39/4/17 38/7/17 37/6/17
f 38/7/18 33/8/18 37/6/18
f 39/4/5 33/9/5 35/10/5
f 36/11/6 38/7/6 40/5/6
f 42/12/1 43/3/1 41/1/1
f 44/2/2 47/4/2 43/3/2
f 48/5/3 45/6/3 47/4/3
f 46/7/4 41/8/4 45/6/4
f 47/4/5 41/9/5 43/10/5
f 44/11/6 46/7/6 48/5/6
f 1/1/1 2/12/1 4/2/1
f 4/2/2 8/5/2 7/4/2
f 8/5/3 6/7/3 5/6/3
f 6/7/4 2/13/4 1/8/4
f 7/4/5 5/6/5 1/9/5
f 4/11/6 2/14/6 6/7/6
f 10/12/7 12/2/7 11/3/7
f 11/3/8 12/2/8 16/5/8
f 15/4/9 16/5/9 14/7/9
f 14/7/10 10/13/10 9/8/10
f 15/4/5 13/6/5 9/9/5
f 12/11/6 10/14/6 14/7/6
f 18/12/11 20/2/11 19/3/11
f 20/2/12 24/5/12 23/4/12
f 24/5/13 22/7/13 21/6/13
f 22/7/14 18/13/14 17/8/14
f 23/4/5 21/6/5 17/9/5
f 20/11/6 18/14/6 22/7/6
f 26/12/11 28/2/11 27/3/11
f 28/2/12 32/5/12 31/4/12
f 32/5/13 30/7/13 29/6/13
f 30/7/14 26/13/14 25/8/14
f 31/4/5 29/6/5 25/9/5
f 28/11/6 26/14/6 30/7/6
f 34/12/15 36/2/15 35/3/15
f 36/2/16 40/5/16 39/4/16
f 39/4/17 40/5/17 38/7/17
f 38/7/18 34/13/18 33/8/18
f 39/4/5 37/6/5 33/9/5
f 36/11/6 34/14/6 38/7/6
f 42/12/1 44/2/1 43/3/1
f 44/2/2 48/5/2 47/4/2
f 48/5/3 46/7/3 45/6/3
f 46/7/4 42/13/4 41/8/4
f 47/4/5 45/6/5 41/9/5
f 44/11/6 42/14/6 46/7/6
