# Blender 5.0.0
# www.blender.org
mtllib mimita-char-concise-v3.mtl
o Cube.012
v -1.600000 4.200000 1.680000
v -2.080000 4.800000 1.800000
v -1.600000 4.200000 1.320000
v -2.080000 4.800000 1.200000
v -1.320000 4.200000 1.680000
v -1.200000 4.800000 1.800000
v -1.320000 4.200000 1.320000
v -1.200000 4.800000 1.200000
vn -0.7809 -0.6247 -0.0000
vn -0.0000 -0.1961 -0.9806
vn 0.9806 -0.1961 -0.0000
vn -0.0000 -0.1961 0.9806
vn -0.0000 -1.0000 -0.0000
vn -0.0000 1.0000 -0.0000
vt 0.625000 0.000000
vt 0.375000 0.250000
vt 0.375000 0.000000
vt 0.625000 0.500000
vt 0.375000 0.500000
vt 0.375000 0.750000
vt 0.625000 0.750000
vt 0.375000 1.000000
vt 0.125000 0.750000
vt 0.125000 0.500000
vt 0.875000 0.500000
vt 0.625000 0.250000
vt 0.625000 1.000000
vt 0.875000 0.750000
s 0
f 2/1/1 3/2/1 1/3/1
f 3/2/2 8/4/2 7/5/2
f 8/4/3 5/6/3 7/5/3
f 6/7/4 1/8/4 5/6/4
f 7/5/5 1/9/5 3/10/5
f 4/11/6 6/7/6 8/4/6
f 2/1/1 4/12/1 3/2/1
f 3/2/2 4/12/2 8/4/2
f 8/4/3 6/7/3 5/6/3
f 6/7/4 2/13/4 1/8/4
f 7/5/5 5/6/5 1/9/5
f 4/11/6 2/14/6 6/7/6
o Cube.013
v -1.808000 2.500000 2.308000
v -1.680000 4.100000 2.180000
v -1.808000 2.500000 1.892000
v -1.680000 4.100000 2.020000
v -1.392000 2.500000 2.308000
v -1.520000 4.100000 2.180000
v -1.392000 2.500000 1.892000
v -1.520000 4.100000 2.020000
vn -0.9968 0.0797 -0.0000
vn -0.0000 0.0797 -0.9968
vn 0.9968 0.0797 -0.0000
vn -0.0000 0.0797 0.9968
vn -0.0000 -1.0000 -0.0000
vn -0.0000 1.0000 -0.0000
vt 0.625000 0.000000
vt 0.375000 0.250000
vt 0.375000 0.000000
vt 0.625000 0.250000
vt 0.375000 0.500000
vt 0.625000 0.500000
vt 0.375000 0.750000
vt 0.625000 0.750000
vt 0.375000 1.000000
vt 0.125000 0.750000
vt 0.125000 0.500000
vt 0.875000 0.500000
vt 0.625000 1.000000
vt 0.875000 0.750000
s 0
f 10/15/7 11/16/7 9/17/7
f 12/18/8 15/19/8 11/16/8
f 16/20/9 13/21/9 15/19/9
f 14/22/10 9/23/10 13/21/10
f 15/19/11 9/24/11 11/25/11
f 12/26/12 14/22/12 16/20/12
f 10/15/7 12/18/7 11/16/7
f 12/18/8 16/20/8 15/19/8
f 16/20/9 14/22/9 13/21/9
f 14/22/10 10/27/10 9/23/10
f 15/19/11 13/21/11 9/24/11
f 12/26/12 10/28/12 14/22/12
o Cube.014
v -1.808000 2.500000 1.108000
v -1.680000 4.100000 0.980000
v -1.808000 2.500000 0.692000
v -1.680000 4.100000 0.820000
v -1.392000 2.500000 1.108000
v -1.520000 4.100000 0.980000
v -1.392000 2.500000 0.692000
v -1.520000 4.100000 0.820000
vn -0.9968 0.0797 -0.0000
vn -0.0000 0.0797 -0.9968
vn 0.9968 0.0797 -0.0000
vn -0.0000 0.0797 0.9968
vn -0.0000 -1.0000 -0.0000
vn -0.0000 1.0000 -0.0000
vt 0.625000 0.000000
vt 0.375000 0.250000
vt 0.375000 0.000000
vt 0.625000 0.250000
vt 0.375000 0.500000
vt 0.625000 0.500000
vt 0.375000 0.750000
vt 0.625000 0.750000
vt 0.375000 1.000000
vt 0.125000 0.750000
vt 0.125000 0.500000
vt 0.875000 0.500000
vt 0.625000 1.000000
vt 0.875000 0.750000
s 0
f 18/29/13 19/30/13 17/31/13
f 20/32/14 23/33/14 19/30/14
f 24/34/15 21/35/15 23/33/15
f 22/36/16 17/37/16 21/35/16
f 23/33/17 17/38/17 19/39/17
f 20/40/18 22/36/18 24/34/18
f 18/29/13 20/32/13 19/30/13
f 20/32/14 24/34/14 23/33/14
f 24/34/15 22/36/15 21/35/15
f 22/36/16 18/41/16 17/37/16
f 23/33/17 21/35/17 17/38/17
f 20/40/18 18/42/18 22/36/18
o Cube.015
v -1.678400 2.900000 1.735200
v -1.760000 4.100000 1.980000
v -1.678400 2.900000 1.264800
v -1.760000 4.100000 1.020000
v -1.521600 2.900000 1.735200
v -1.440000 4.100000 1.980000
v -1.521600 2.900000 1.264800
v -1.440000 4.100000 1.020000
vn -0.9977 -0.0678 -0.0000
vn -0.0000 -0.1999 -0.9798
vn 0.9977 -0.0678 -0.0000
vn -0.0000 -0.1999 0.9798
vn -0.0000 -1.0000 -0.0000
vn -0.0000 1.0000 -0.0000
vt 0.625000 0.000000
vt 0.375000 0.250000
vt 0.375000 0.000000
vt 0.625000 0.250000
vt 0.375000 0.500000
vt 0.625000 0.750000
vt 0.375000 0.750000
vt 0.375000 1.000000
vt 0.125000 0.750000
vt 0.125000 0.500000
vt 0.875000 0.500000
vt 0.625000 0.500000
vt 0.625000 1.000000
vt 0.875000 0.750000
s 0
f 26/43/19 27/44/19 25/45/19
f 28/46/20 31/47/20 27/44/20
f 31/47/21 30/48/21 29/49/21
f 30/48/22 25/50/22 29/49/22
f 31/47/23 25/51/23 27/52/23
f 28/53/24 30/48/24 32/54/24
f 26/43/19 28/46/19 27/44/19
f 28/46/20 32/54/20 31/47/20
f 31/47/21 32/54/21 30/48/21
f 30/48/22 26/55/22 25/50/22
f 31/47/23 29/49/23 25/51/23
f 28/53/24 26/56/24 30/48/24
o Cube.016
v -1.900000 1.400000 1.500000
v -1.705000 3.000000 1.305000
v -1.900000 1.400000 0.900000
v -1.705000 3.000000 1.095000
v -1.300000 1.400000 1.500000
v -1.495000 3.000000 1.305000
v -1.300000 1.400000 0.900000
v -1.495000 3.000000 1.095000
vn -0.9927 0.1210 -0.0000
vn -0.0000 0.1210 -0.9927
vn 0.9927 0.1210 -0.0000
vn -0.0000 0.1210 0.9927
vn -0.0000 -1.0000 -0.0000
vn -0.0000 1.0000 -0.0000
vt 0.375000 0.000000
vt 0.625000 0.250000
vt 0.375000 0.250000
vt 0.375000 0.500000
vt 0.625000 0.500000
vt 0.375000 0.750000
vt 0.625000 0.750000
vt 0.375000 1.000000
vt 0.125000 0.750000
vt 0.125000 0.500000
vt 0.875000 0.500000
vt 0.625000 0.000000
vt 0.625000 1.000000
vt 0.875000 0.750000
s 0
f 33/57/25 36/58/25 35/59/25
f 36/58/26 39/60/26 35/59/26
f 40/61/27 37/62/27 39/60/27
f 38/63/28 33/64/28 37/62/28
f 39/60/29 33/65/29 35/66/29
f 36/67/30 38/63/30 40/61/30
f 33/57/25 34/68/25 36/58/25
f 36/58/26 40/61/26 39/60/26
f 40/61/27 38/63/27 37/62/27
f 38/63/28 34/69/28 33/64/28
f 39/60/29 37/62/29 33/65/29
f 36/67/30 34/70/30 38/63/30
o Cube.017
v -1.900000 1.400000 2.100000
v -1.705000 3.000000 1.905000
v -1.900000 1.400000 1.500000
v -1.705000 3.000000 1.695000
v -1.300000 1.400000 2.100000
v -1.495000 3.000000 1.905000
v -1.300000 1.400000 1.500000
v -1.495000 3.000000 1.695000
vn -0.9927 0.1210 -0.0000
vn -0.0000 0.1210 -0.9927
vn 0.9927 0.1210 -0.0000
vn -0.0000 0.1210 0.9927
vn -0.0000 -1.0000 -0.0000
vn -0.0000 1.0000 -0.0000
vt 0.625000 0.000000
vt 0.375000 0.250000
vt 0.375000 0.000000
vt 0.625000 0.250000
vt 0.375000 0.500000
vt 0.625000 0.750000
vt 0.375000 0.750000
vt 0.625000 1.000000
vt 0.375000 1.000000
vt 0.125000 0.750000
vt 0.125000 0.500000
vt 0.875000 0.500000
vt 0.625000 0.500000
vt 0.875000 0.750000
s 0
f 42/71/31 43/72/31 41/73/31
f 44/74/32 47/75/32 43/72/32
f 47/75/33 46/76/33 45/77/33
f 45/77/34 42/78/34 41/79/34
f 47/75/35 41/80/35 43/81/35
f 44/82/36 46/76/36 48/83/36
f 42/71/31 44/74/31 43/72/31
f 44/74/32 48/83/32 47/75/32
f 47/75/33 48/83/33 46/76/33
f 45/77/34 46/76/34 42/78/34
f 47/75/35 45/77/35 41/80/35
f 44/82/36 42/84/36 46/76/36
